<?xml version="1.0" standalone="yes"?>
<svg xmlns="http://www.w3.org/2000/svg" width="500" height="500">
<path style="fill:#4d9daf; stroke:none;" d="M0 0L0 500L500 500L500 0L0 0z"/>
<path style="fill:#82bbc8; stroke:none;" d="M190 66L190 67L204 67L190 66z"/>
<path style="fill:#a9d2db; stroke:none;" d="M204.667 66.3333L205.333 66.6667L204.667 66.3333z"/>
<path style="fill:#c4e0e6; stroke:none;" d="M206 66L207 67L206 66z"/>
<path style="fill:#82bbc8; stroke:none;" d="M207 66L207 67L216 67L207 66M217.667 66.3333L218.333 66.6667L217.667 66.3333M182 67L182 68L185 68L182 67z"/>
<path style="fill:#c4e0e6; stroke:none;" d="M185 67L185 68L190 68L185 67z"/>
<path style="fill:#ffffff; stroke:none;" d="M143 246C138.499 235.3 131.721 226.624 128.898 215C119.442 176.063 130.375 116.131 175 103L175 338L175 410L176 445L222 445L223 418L223 366L223 194L224 194C243.984 242.709 267.854 289.86 289.138 338C304.733 373.272 318.567 411.699 338 445L388.745 444.674L406.062 443.204L407 417L407 345L407 68L361 68L361 341C330.465 276.484 305.245 209.461 274.593 145C266.782 128.573 260.315 111.496 252.64 95C249.726 88.7375 247.628 79.2921 242.606 74.419C234.428 66.4821 216.517 67 206 67C170.886 67 135.714 76.8574 110.285 102.285C87.0754 125.496 77.516 155.916 78.9606 188C79.9067 209.01 86.5529 229.628 107 239.367C118.075 244.641 130.917 246 143 246z"/>
<path style="fill:#c4e0e6; stroke:none;" d="M219 67L219 68L223 68L219 67z"/>
<path style="fill:#82bbc8; stroke:none;" d="M223 67L223 68L226 68L223 67z"/>
<path style="fill:#c4e0e6; stroke:none;" d="M361 67L361 68L406 68C394.299 63.09 373.742 67 361 67z"/>
<path style="fill:#a9d2db; stroke:none;" d="M406 67L407 68L406 67z"/>
<path style="fill:#82bbc8; stroke:none;" d="M177 68L178 69L177 68z"/>
<path style="fill:#c4e0e6; stroke:none;" d="M178 68L178 69L182 69L178 68M226.667 68.3333L227.333 68.6667L226.667 68.3333z"/>
<path style="fill:#a9d2db; stroke:none;" d="M228 68L229 69L228 68z"/>
<path style="fill:#82bbc8; stroke:none;" d="M229 68L230 69L229 68M407 68L407 445L408 445L408 178L408 101L407 68M171 69L172 70L171 69z"/>
<path style="fill:#a9d2db; stroke:none;" d="M172.667 69.3333L173.333 69.6667L172.667 69.3333z"/>
<path style="fill:#c4e0e6; stroke:none;" d="M174 69L175 70L174 69M231 69L232 70L231 69z"/>
<path style="fill:#a9d2db; stroke:none;" d="M232 69L233 70L232 69z"/>
<path style="fill:#82bbc8; stroke:none;" d="M167 70L168 71L167 70z"/>
<path style="fill:#a9d2db; stroke:none;" d="M168 70L169 71L168 70z"/>
<path style="fill:#c4e0e6; stroke:none;" d="M169 70L170 71L169 70M234 70L235 71L234 70z"/>
<path style="fill:#a9d2db; stroke:none;" d="M235 70L236 71L235 70z"/>
<path style="fill:#82bbc8; stroke:none;" d="M236 70L237 71L236 70M163.667 71.3333L164.333 71.6667L163.667 71.3333z"/>
<path style="fill:#c4e0e6; stroke:none;" d="M165.667 71.3333L166.333 71.6667L165.667 71.3333M237 71L238 72L237 71z"/>
<path style="fill:#82bbc8; stroke:none;" d="M238 71L239 72L238 71M159 72L160 73L159 72z"/>
<path style="fill:#c4e0e6; stroke:none;" d="M160.667 72.3333L161.333 72.6667L160.667 72.3333M240 72L241 73L240 72z"/>
<path style="fill:#a9d2db; stroke:none;" d="M241 72L242 73L241 72z"/>
<path style="fill:#c4e0e6; stroke:none;" d="M157.667 73.3333L158.333 73.6667L157.667 73.3333M242 73L244 75L242 73z"/>
<path style="fill:#a9d2db; stroke:none;" d="M243 73L244 74L243 73M154 74L155 75L154 74z"/>
<path style="fill:#82bbc8; stroke:none;" d="M151 75L152 76L151 75z"/>
<path style="fill:#a9d2db; stroke:none;" d="M152 75L153 76L152 75z"/>
<path style="fill:#82bbc8; stroke:none;" d="M244 75L245 76L244 75M149 76L150 77L149 76z"/>
<path style="fill:#c4e0e6; stroke:none;" d="M150 76L151 77L150 76M244 76L245 77L244 76z"/>
<path style="fill:#a9d2db; stroke:none;" d="M146 77L147 78L146 77z"/>
<path style="fill:#c4e0e6; stroke:none;" d="M147 77L148 78L147 77z"/>
<path style="fill:#82bbc8; stroke:none;" d="M245 77L246 78L245 77M144 78L145 79L144 78z"/>
<path style="fill:#c4e0e6; stroke:none;" d="M145 78L146 79L145 78M245 78L246 79L245 78z"/>
<path style="fill:#82bbc8; stroke:none;" d="M142 79L143 80L142 79z"/>
<path style="fill:#c4e0e6; stroke:none;" d="M143 79L144 80L143 79z"/>
<path style="fill:#82bbc8; stroke:none;" d="M246 79L247 80L246 79M140 80L141 81L140 80z"/>
<path style="fill:#c4e0e6; stroke:none;" d="M141 80L142 81L141 80M246.333 80.6667L246.667 81.3333L246.333 80.6667z"/>
<path style="fill:#82bbc8; stroke:none;" d="M138 81L139 82L138 81z"/>
<path style="fill:#c4e0e6; stroke:none;" d="M139 81L140 82L139 81z"/>
<path style="fill:#82bbc8; stroke:none;" d="M136 82L137 83L136 82z"/>
<path style="fill:#c4e0e6; stroke:none;" d="M137 82L138 83L137 82z"/>
<path style="fill:#82bbc8; stroke:none;" d="M247 82L248 83L247 82M134 83L135 84L134 83z"/>
<path style="fill:#c4e0e6; stroke:none;" d="M135 83L136 84L135 83M247 83L248 84L247 83M133 84L134 85L133 84z"/>
<path style="fill:#82bbc8; stroke:none;" d="M248 84L249 85L248 84M131 85L132 86L131 85z"/>
<path style="fill:#c4e0e6; stroke:none;" d="M248 85L249 86L248 85z"/>
<path style="fill:#82bbc8; stroke:none;" d="M129 86L130 87L129 86z"/>
<path style="fill:#c4e0e6; stroke:none;" d="M130 86L131 87L130 86z"/>
<path style="fill:#82bbc8; stroke:none;" d="M249 86L250 87L249 86z"/>
<path style="fill:#a9d2db; stroke:none;" d="M128 87L129 88L128 87z"/>
<path style="fill:#c4e0e6; stroke:none;" d="M249 87L250 88L249 87z"/>
<path style="fill:#a9d2db; stroke:none;" d="M126 88L127 89L126 88z"/>
<path style="fill:#c4e0e6; stroke:none;" d="M125 89L126 90L125 89z"/>
<path style="fill:#82bbc8; stroke:none;" d="M250 89L251 90L250 89z"/>
<path style="fill:#c4e0e6; stroke:none;" d="M124 90L125 91L124 90M250 90L251 91L250 90z"/>
<path style="fill:#82bbc8; stroke:none;" d="M122 91L123 92L122 91z"/>
<path style="fill:#a9d2db; stroke:none;" d="M251 91L252 92L251 91z"/>
<path style="fill:#82bbc8; stroke:none;" d="M120 92L121 93L120 92z"/>
<path style="fill:#a9d2db; stroke:none;" d="M121 92L122 93L121 92z"/>
<path style="fill:#c4e0e6; stroke:none;" d="M251 92L252 93L251 92z"/>
<path style="fill:#82bbc8; stroke:none;" d="M119 93L120 94L119 93z"/>
<path style="fill:#a9d2db; stroke:none;" d="M252 93L253 94L252 93M118 94L119 95L118 94z"/>
<path style="fill:#c4e0e6; stroke:none;" d="M252 94L253 95L252 94z"/>
<path style="fill:#a9d2db; stroke:none;" d="M117 95L118 96L117 95M116 96L117 97L116 96z"/>
<path style="fill:#82bbc8; stroke:none;" d="M253 96L254 97L253 96z"/>
<path style="fill:#c4e0e6; stroke:none;" d="M115 97L116 98L115 97M253 97L254 98L253 97M114 98L115 99L114 98z"/>
<path style="fill:#82bbc8; stroke:none;" d="M254 98L255 99L254 98z"/>
<path style="fill:#c4e0e6; stroke:none;" d="M113 99L114 100L113 99M112 100L113 101L112 100z"/>
<path style="fill:#a9d2db; stroke:none;" d="M255 100L256 101L255 100z"/>
<path style="fill:#82bbc8; stroke:none;" d="M110 101L111 102L110 101z"/>
<path style="fill:#a9d2db; stroke:none;" d="M109 102L110 103L109 102z"/>
<path style="fill:#82bbc8; stroke:none;" d="M256 102L257 103L256 102M108 103L109 104L108 103z"/>
<path style="fill:#c4e0e6; stroke:none;" d="M172 103L173 104L172 103z"/>
<path style="fill:#82bbc8; stroke:none;" d="M173 103L174 108L175 108L173 103z"/>
<path style="fill:#a9d2db; stroke:none;" d="M174 103L175 104L174 103z"/>
<path style="fill:#c4e0e6; stroke:none;" d="M256 103L257 104L256 103M108 104L109 105L108 104M170 104L171 105L170 104z"/>
<path style="fill:#82bbc8; stroke:none;" d="M171 104L172 105L171 104M257 104L258 105L257 104z"/>
<path style="fill:#c4e0e6; stroke:none;" d="M107 105L108 106L107 105M168 105L169 106L168 105z"/>
<path style="fill:#82bbc8; stroke:none;" d="M169 105L170 106L169 105z"/>
<path style="fill:#a9d2db; stroke:none;" d="M257 105L258 106L257 105z"/>
<path style="fill:#c4e0e6; stroke:none;" d="M106 106L107 107L106 106M167 106L168 107L167 106M105 107L106 108L105 107M165 107L166 108L165 107z"/>
<path style="fill:#82bbc8; stroke:none;" d="M166 107L167 108L166 107M258 107L259 108L258 107z"/>
<path style="fill:#a9d2db; stroke:none;" d="M104 108L105 109L104 108z"/>
<path style="fill:#82bbc8; stroke:none;" d="M164 108L165 109L164 108z"/>
<path style="fill:#c4e0e6; stroke:none;" d="M258 108L259 109L258 108z"/>
<path style="fill:#a9d2db; stroke:none;" d="M103 109L104 110L103 109M162 109L163 110L162 109z"/>
<path style="fill:#82bbc8; stroke:none;" d="M163 109L164 110L163 109z"/>
<path style="fill:#a9d2db; stroke:none;" d="M174 109L175 110L174 109z"/>
<path style="fill:#82bbc8; stroke:none;" d="M259 109L260 110L259 109z"/>
<path style="fill:#a9d2db; stroke:none;" d="M102 110L103 111L102 110M161 110L162 111L161 110z"/>
<path style="fill:#82bbc8; stroke:none;" d="M174 110L175 111L174 110z"/>
<path style="fill:#a9d2db; stroke:none;" d="M259 110L260 111L259 110M158 112L159 113L158 112z"/>
<path style="fill:#82bbc8; stroke:none;" d="M174 112L175 113L174 112z"/>
<path style="fill:#a9d2db; stroke:none;" d="M260 112L261 113L260 112M100 113L101 114L100 113M157 113L158 114L157 113M174 113L175 114L174 113z"/>
<path style="fill:#82bbc8; stroke:none;" d="M99 114L100 115L99 114z"/>
<path style="fill:#c4e0e6; stroke:none;" d="M155 114L156 115L155 114z"/>
<path style="fill:#82bbc8; stroke:none;" d="M156 114L157 115L156 114M174.333 114.667L174.667 115.333L174.333 114.667z"/>
<path style="fill:#a9d2db; stroke:none;" d="M261 114L262 115L261 114z"/>
<path style="fill:#82bbc8; stroke:none;" d="M98 115L99 116L98 115z"/>
<path style="fill:#c4e0e6; stroke:none;" d="M154 115L155 116L154 115z"/>
<path style="fill:#82bbc8; stroke:none;" d="M262.333 115.667L262.667 116.333L262.333 115.667z"/>
<path style="fill:#c4e0e6; stroke:none;" d="M98 116L99 117L98 116M153 116L154 117L153 116z"/>
<path style="fill:#a9d2db; stroke:none;" d="M174 116L175 117L174 116z"/>
<path style="fill:#82bbc8; stroke:none;" d="M97 117L98 118L97 117z"/>
<path style="fill:#c4e0e6; stroke:none;" d="M152 117L153 118L152 117z"/>
<path style="fill:#82bbc8; stroke:none;" d="M174 117L175 118L174 117z"/>
<path style="fill:#c4e0e6; stroke:none;" d="M262 117L263 118L262 117z"/>
<path style="fill:#82bbc8; stroke:none;" d="M96 118L97 119L96 118z"/>
<path style="fill:#c4e0e6; stroke:none;" d="M151 118L152 119L151 118z"/>
<path style="fill:#82bbc8; stroke:none;" d="M263 118L264 119L263 118z"/>
<path style="fill:#c4e0e6; stroke:none;" d="M96 119L97 120L96 119z"/>
<path style="fill:#a9d2db; stroke:none;" d="M150 119L151 120L150 119z"/>
<path style="fill:#82bbc8; stroke:none;" d="M151 119L152 120L151 119z"/>
<path style="fill:#a9d2db; stroke:none;" d="M174.333 119.667L174.667 120.333L174.333 119.667M263 119L264 120L263 119z"/>
<path style="fill:#c4e0e6; stroke:none;" d="M95 120L96 121L95 120M149 120L150 121L149 120z"/>
<path style="fill:#82bbc8; stroke:none;" d="M264 120L265 121L264 120M94 121L95 122L94 121z"/>
<path style="fill:#c4e0e6; stroke:none;" d="M148 121L149 122L148 121z"/>
<path style="fill:#a9d2db; stroke:none;" d="M264 121L265 122L264 121z"/>
<path style="fill:#c4e0e6; stroke:none;" d="M94 122L95 123L94 122M147 122L148 123L147 122z"/>
<path style="fill:#82bbc8; stroke:none;" d="M174 122L175 123L174 122z"/>
<path style="fill:#c4e0e6; stroke:none;" d="M93 123L94 124L93 123M146 123L147 124L146 123z"/>
<path style="fill:#a9d2db; stroke:none;" d="M174 123L175 124L174 123z"/>
<path style="fill:#82bbc8; stroke:none;" d="M265 123L266 124L265 123M92 124L93 125L92 124M174.333 124.667L174.667 125.333L174.333 124.667z"/>
<path style="fill:#a9d2db; stroke:none;" d="M92 125L93 126L92 125z"/>
<path style="fill:#82bbc8; stroke:none;" d="M145 125L146 126L145 125M266 125L267 126L266 125M144 126L145 127L144 126z"/>
<path style="fill:#a9d2db; stroke:none;" d="M174 126L175 127L174 126z"/>
<path style="fill:#c4e0e6; stroke:none;" d="M266 126L267 127L266 126z"/>
<path style="fill:#a9d2db; stroke:none;" d="M91 127L92 128L91 127M143 127L144 128L143 127z"/>
<path style="fill:#82bbc8; stroke:none;" d="M174 127L175 128L174 127M267 127L268 128L267 127z"/>
<path style="fill:#a9d2db; stroke:none;" d="M90 128L91 129L90 128z"/>
<path style="fill:#c4e0e6; stroke:none;" d="M142 128L143 129L142 128M267 128L268 129L267 128M141 129L142 130L141 129z"/>
<path style="fill:#82bbc8; stroke:none;" d="M174 129L175 130L174 129M268 129L269 130L268 129M89 130L90 131L89 130M141 130L142 131L141 130z"/>
<path style="fill:#a9d2db; stroke:none;" d="M174 130L175 131L174 130z"/>
<path style="fill:#c4e0e6; stroke:none;" d="M268.333 130.667L268.667 131.333L268.333 130.667M89 131L90 132L89 131M140 131L141 132L140 131z"/>
<path style="fill:#82bbc8; stroke:none;" d="M88 132L89 133L88 132z"/>
<path style="fill:#c4e0e6; stroke:none;" d="M139 132L140 133L139 132z"/>
<path style="fill:#82bbc8; stroke:none;" d="M174 132L174 135L175 135L174 132M269 132L270 133L269 132z"/>
<path style="fill:#c4e0e6; stroke:none;" d="M88 133L89 134L88 133z"/>
<path style="fill:#82bbc8; stroke:none;" d="M139 133L140 134L139 133z"/>
<path style="fill:#c4e0e6; stroke:none;" d="M269 133L270 134L269 133z"/>
<path style="fill:#82bbc8; stroke:none;" d="M87 134L88 135L87 134z"/>
<path style="fill:#c4e0e6; stroke:none;" d="M138 134L139 135L138 134z"/>
<path style="fill:#82bbc8; stroke:none;" d="M270 134L271 135L270 134z"/>
<path style="fill:#a9d2db; stroke:none;" d="M87 135L88 136L87 135z"/>
<path style="fill:#c4e0e6; stroke:none;" d="M270 135L271 136L270 135z"/>
<path style="fill:#82bbc8; stroke:none;" d="M86 136L87 137L86 136z"/>
<path style="fill:#a9d2db; stroke:none;" d="M137 136L138 137L137 136M174 136L175 137L174 136z"/>
<path style="fill:#82bbc8; stroke:none;" d="M271 136L272 137L271 136z"/>
<path style="fill:#a9d2db; stroke:none;" d="M86 137L87 138L86 137z"/>
<path style="fill:#c4e0e6; stroke:none;" d="M136 137L137 138L136 137z"/>
<path style="fill:#82bbc8; stroke:none;" d="M174 137L175 138L174 137z"/>
<path style="fill:#a9d2db; stroke:none;" d="M271 137L272 138L271 137z"/>
<path style="fill:#82bbc8; stroke:none;" d="M136 138L137 139L136 138M85 139L86 140L85 139z"/>
<path style="fill:#c4e0e6; stroke:none;" d="M135 139L136 140L135 139z"/>
<path style="fill:#82bbc8; stroke:none;" d="M174 139L175 140L174 139z"/>
<path style="fill:#a9d2db; stroke:none;" d="M272 139L273 140L272 139z"/>
<path style="fill:#c4e0e6; stroke:none;" d="M85 140L86 141L85 140z"/>
<path style="fill:#a9d2db; stroke:none;" d="M135 140L136 141L135 140M174 140L175 141L174 140z"/>
<path style="fill:#c4e0e6; stroke:none;" d="M272 140L273 141L272 140z"/>
<path style="fill:#82bbc8; stroke:none;" d="M84 141L85 142L84 141z"/>
<path style="fill:#c4e0e6; stroke:none;" d="M134 141L135 142L134 141z"/>
<path style="fill:#a9d2db; stroke:none;" d="M273 141L274 142L273 141M84 142L85 143L84 142M134 142L135 143L134 142z"/>
<path style="fill:#82bbc8; stroke:none;" d="M174 142L174 145L175 145L174 142z"/>
<path style="fill:#c4e0e6; stroke:none;" d="M273 142L274 143L273 142M84 143L85 144L84 143z"/>
<path style="fill:#82bbc8; stroke:none;" d="M274 143L275 144L274 143M83 144L84 145L83 144z"/>
<path style="fill:#a9d2db; stroke:none;" d="M133 144L134 145L133 144z"/>
<path style="fill:#c4e0e6; stroke:none;" d="M274.333 144.667L274.667 145.333L274.333 144.667z"/>
<path style="fill:#a9d2db; stroke:none;" d="M83 145L84 146L83 145z"/>
<path style="fill:#82bbc8; stroke:none;" d="M133 145L134 146L133 145z"/>
<path style="fill:#c4e0e6; stroke:none;" d="M83 146L84 147L83 146M132 146L133 147L132 146z"/>
<path style="fill:#a9d2db; stroke:none;" d="M174 146L175 147L174 146M275 146L276 147L275 146z"/>
<path style="fill:#82bbc8; stroke:none;" d="M82.3333 147.667L82.6667 148.333L82.3333 147.667M132.333 147.667L132.667 148.333L132.333 147.667M174 147L175 148L174 147z"/>
<path style="fill:#a9d2db; stroke:none;" d="M276 148L277 149L276 148z"/>
<path style="fill:#c4e0e6; stroke:none;" d="M82.3333 149.667L82.6667 150.333L82.3333 149.667M131 149L132 150L131 149z"/>
<path style="fill:#82bbc8; stroke:none;" d="M174 149L175 150L174 149M131 150L132 151L131 150z"/>
<path style="fill:#a9d2db; stroke:none;" d="M174 150L175 151L174 150M277 150L278 151L277 150z"/>
<path style="fill:#82bbc8; stroke:none;" d="M81 151L82 152L81 151M174.333 151.667L174.667 152.333L174.333 151.667z"/>
<path style="fill:#c4e0e6; stroke:none;" d="M277 151L278 152L277 151z"/>
<path style="fill:#a9d2db; stroke:none;" d="M81 152L82 153L81 152z"/>
<path style="fill:#c4e0e6; stroke:none;" d="M130.333 152.667L130.667 153.333L130.333 152.667z"/>
<path style="fill:#82bbc8; stroke:none;" d="M278 152L279 153L278 152z"/>
<path style="fill:#c4e0e6; stroke:none;" d="M81 153L82 154L81 153z"/>
<path style="fill:#a9d2db; stroke:none;" d="M174 153L175 154L174 153z"/>
<path style="fill:#c4e0e6; stroke:none;" d="M278 153L279 154L278 153z"/>
<path style="fill:#82bbc8; stroke:none;" d="M130.333 154.667L130.667 155.333L130.333 154.667M174 154L175 155L174 154M279 154L280 155L279 154M80 155L81 156L80 155z"/>
<path style="fill:#a9d2db; stroke:none;" d="M279 155L280 156L279 155M80.3333 156.667L80.6667 157.333L80.3333 156.667M129 156L130 157L129 156M174.333 156.667L174.667 157.333L174.333 156.667z"/>
<path style="fill:#82bbc8; stroke:none;" d="M129.333 157.667L129.667 158.333L129.333 157.667z"/>
<path style="fill:#a9d2db; stroke:none;" d="M280 157L281 158L280 157z"/>
<path style="fill:#c4e0e6; stroke:none;" d="M280 158L281 159L280 158z"/>
<path style="fill:#82bbc8; stroke:none;" d="M174 159L175 160L174 159z"/>
<path style="fill:#a9d2db; stroke:none;" d="M79.3333 160.667L79.6667 161.333L79.3333 160.667z"/>
<path style="fill:#c4e0e6; stroke:none;" d="M128 160L129 161L128 160z"/>
<path style="fill:#a9d2db; stroke:none;" d="M174 160L175 161L174 160z"/>
<path style="fill:#c4e0e6; stroke:none;" d="M281 160L282 161L281 160z"/>
<path style="fill:#a9d2db; stroke:none;" d="M128 161L129 162L128 161z"/>
<path style="fill:#82bbc8; stroke:none;" d="M174.333 161.667L174.667 162.333L174.333 161.667z"/>
<path style="fill:#c4e0e6; stroke:none;" d="M79 162L80 163L79 162z"/>
<path style="fill:#82bbc8; stroke:none;" d="M128 162L129 163L128 162z"/>
<path style="fill:#c4e0e6; stroke:none;" d="M282 162L283 163L282 162z"/>
<path style="fill:#a9d2db; stroke:none;" d="M174 163L175 164L174 163z"/>
<path style="fill:#82bbc8; stroke:none;" d="M283 163L284 164L283 163M174 164L175 165L174 164z"/>
<path style="fill:#c4e0e6; stroke:none;" d="M283.333 164.667L283.667 165.333L283.333 164.667z"/>
<path style="fill:#a9d2db; stroke:none;" d="M127 165L127 168L128 168L127 165z"/>
<path style="fill:#82bbc8; stroke:none;" d="M78.3333 166.667L78.6667 167.333L78.3333 166.667M174 166L175 167L174 166z"/>
<path style="fill:#c4e0e6; stroke:none;" d="M284.333 166.667L284.667 167.333L284.333 166.667z"/>
<path style="fill:#a9d2db; stroke:none;" d="M174 167L175 168L174 167z"/>
<path style="fill:#c4e0e6; stroke:none;" d="M78 168L78 174L79 174L78 168z"/>
<path style="fill:#82bbc8; stroke:none;" d="M127 168L128 169L127 168M285 168L286 169L285 168M174 169L174 172L175 172L174 169z"/>
<path style="fill:#c4e0e6; stroke:none;" d="M285 169L286 170L285 169z"/>
<path style="fill:#82bbc8; stroke:none;" d="M286 170L287 171L286 170z"/>
<path style="fill:#c4e0e6; stroke:none;" d="M286 171L287 172L286 171M126 172L126 176L127 176L126 172z"/>
<path style="fill:#a9d2db; stroke:none;" d="M174 173L175 174L174 173z"/>
<path style="fill:#82bbc8; stroke:none;" d="M287 173L288 174L287 173M77 174L78 175L77 174M174 174L175 175L174 174z"/>
<path style="fill:#c4e0e6; stroke:none;" d="M287 174L288 175L287 174M78 175L79 176L78 175z"/>
<path style="fill:#82bbc8; stroke:none;" d="M288 175L289 176L288 175M77 176L77 183L78 183L77 176z"/>
<path style="fill:#a9d2db; stroke:none;" d="M126 176L127 177L126 176z"/>
<path style="fill:#82bbc8; stroke:none;" d="M174 176L175 177L174 176z"/>
<path style="fill:#c4e0e6; stroke:none;" d="M288 176L289 177L288 176z"/>
<path style="fill:#82bbc8; stroke:none;" d="M126 177L127 178L126 177z"/>
<path style="fill:#a9d2db; stroke:none;" d="M174 177L175 178L174 177z"/>
<path style="fill:#82bbc8; stroke:none;" d="M289 177L290 178L289 177z"/>
<path style="fill:#a9d2db; stroke:none;" d="M126 178L127 179L126 178z"/>
<path style="fill:#c4e0e6; stroke:none;" d="M289 178L290 179L289 178z"/>
<path style="fill:#82bbc8; stroke:none;" d="M126 179L126 191L127 191L126 179M174 179L174 182L175 182L174 179M290.333 179.667L290.667 180.333L290.333 179.667z"/>
<path style="fill:#c4e0e6; stroke:none;" d="M290 181L291 182L290 181z"/>
<path style="fill:#82bbc8; stroke:none;" d="M291 182L292 183L291 182z"/>
<path style="fill:#c4e0e6; stroke:none;" d="M78 183L78 192L79 192L78 183z"/>
<path style="fill:#a9d2db; stroke:none;" d="M174 183L175 184L174 183z"/>
<path style="fill:#c4e0e6; stroke:none;" d="M291 183L292 184L291 183z"/>
<path style="fill:#82bbc8; stroke:none;" d="M77 184L78 185L77 184M174 184L175 185L174 184M292 184L293 185L292 184M174 186L175 187L174 186M293 186L294 187L293 186z"/>
<path style="fill:#a9d2db; stroke:none;" d="M174 187L175 188L174 187M293 187L294 188L293 187z"/>
<path style="fill:#82bbc8; stroke:none;" d="M174.333 188.667L174.667 189.333L174.333 188.667z"/>
<path style="fill:#a9d2db; stroke:none;" d="M294 189L295 190L294 189M174 190L175 191L174 190M126 191L127 192L126 191z"/>
<path style="fill:#82bbc8; stroke:none;" d="M174 191L175 192L174 191M295 191L296 192L295 191M78 192L78 195L79 195L78 192M126 192L127 193L126 192z"/>
<path style="fill:#c4e0e6; stroke:none;" d="M295 192L296 193L295 192z"/>
<path style="fill:#a9d2db; stroke:none;" d="M126.333 193.667L126.667 194.333L126.333 193.667z"/>
<path style="fill:#82bbc8; stroke:none;" d="M174 193L175 194L174 193M296 193L297 194L296 193z"/>
<path style="fill:#a9d2db; stroke:none;" d="M174 194L175 195L174 194M223 194L223 198L224 198L223 194M296 194L297 195L296 194z"/>
<path style="fill:#c4e0e6; stroke:none;" d="M126 195L126 200L127 200L126 195M224 195L225 196L224 195M79 196L80 197L79 196z"/>
<path style="fill:#82bbc8; stroke:none;" d="M174 196L174 199L175 199L174 196M224 196L225 197L224 196z"/>
<path style="fill:#a9d2db; stroke:none;" d="M297 196L298 197L297 196z"/>
<path style="fill:#c4e0e6; stroke:none;" d="M225 197L226 198L225 197z"/>
<path style="fill:#82bbc8; stroke:none;" d="M223.333 198.667L223.667 199.333L223.333 198.667M225 198L226 199L225 198z"/>
<path style="fill:#a9d2db; stroke:none;" d="M298 198L299 199L298 198z"/>
<path style="fill:#c4e0e6; stroke:none;" d="M79 199L80 200L79 199M226.333 199.667L226.667 200.333L226.333 199.667z"/>
<path style="fill:#a9d2db; stroke:none;" d="M79 200L80 201L79 200M174 200L175 201L174 200M223.333 200.667L223.667 201.333L223.333 200.667z"/>
<path style="fill:#82bbc8; stroke:none;" d="M299 200L300 201L299 200M174 201L175 202L174 201M226 201L227 202L226 201z"/>
<path style="fill:#c4e0e6; stroke:none;" d="M299 201L300 202L299 201z"/>
<path style="fill:#82bbc8; stroke:none;" d="M223 202L224 203L223 202z"/>
<path style="fill:#c4e0e6; stroke:none;" d="M227 202L228 203L227 202z"/>
<path style="fill:#82bbc8; stroke:none;" d="M300 202L301 203L300 202z"/>
<path style="fill:#a9d2db; stroke:none;" d="M80.3333 203.667L80.6667 204.333L80.3333 203.667z"/>
<path style="fill:#82bbc8; stroke:none;" d="M174 203L175 204L174 203z"/>
<path style="fill:#a9d2db; stroke:none;" d="M223.333 203.667L223.667 204.333L223.333 203.667z"/>
<path style="fill:#82bbc8; stroke:none;" d="M227 203L228 204L227 203z"/>
<path style="fill:#a9d2db; stroke:none;" d="M300 203L301 204L300 203z"/>
<path style="fill:#82bbc8; stroke:none;" d="M127 204L128 205L127 204z"/>
<path style="fill:#a9d2db; stroke:none;" d="M174 204L175 205L174 204z"/>
<path style="fill:#c4e0e6; stroke:none;" d="M228 204L229 205L228 204z"/>
<path style="fill:#82bbc8; stroke:none;" d="M301 204L302 205L301 204M80 205L81 206L80 205z"/>
<path style="fill:#a9d2db; stroke:none;" d="M127 205L127 208L128 208L127 205z"/>
<path style="fill:#82bbc8; stroke:none;" d="M223.333 205.667L223.667 206.333L223.333 205.667M228 205L229 206L228 205z"/>
<path style="fill:#a9d2db; stroke:none;" d="M301 205L302 206L301 205z"/>
<path style="fill:#82bbc8; stroke:none;" d="M174 206L174 209L175 209L174 206z"/>
<path style="fill:#c4e0e6; stroke:none;" d="M229 206L230 207L229 206M81 207L82 208L81 207z"/>
<path style="fill:#a9d2db; stroke:none;" d="M223 207L224 208L223 207z"/>
<path style="fill:#82bbc8; stroke:none;" d="M229 207L230 208L229 207z"/>
<path style="fill:#a9d2db; stroke:none;" d="M302 207L303 208L302 207z"/>
<path style="fill:#82bbc8; stroke:none;" d="M81.3333 208.667L81.6667 209.333L81.3333 208.667M223.333 208.667L223.667 209.333L223.333 208.667z"/>
<path style="fill:#c4e0e6; stroke:none;" d="M230 208L231 209L230 208M302 208L303 209L302 208z"/>
<path style="fill:#a9d2db; stroke:none;" d="M230 209L231 210L230 209z"/>
<path style="fill:#82bbc8; stroke:none;" d="M303 209L304 210L303 209z"/>
<path style="fill:#c4e0e6; stroke:none;" d="M82 210L83 211L82 210z"/>
<path style="fill:#82bbc8; stroke:none;" d="M128 210L129 211L128 210z"/>
<path style="fill:#a9d2db; stroke:none;" d="M174 210L175 211L174 210M223.333 210.667L223.667 211.333L223.333 210.667z"/>
<path style="fill:#82bbc8; stroke:none;" d="M230 210L231 211L230 210z"/>
<path style="fill:#c4e0e6; stroke:none;" d="M303 210L304 211L303 210z"/>
<path style="fill:#a9d2db; stroke:none;" d="M82 211L83 212L82 211M128.333 211.667L128.667 212.333L128.333 211.667z"/>
<path style="fill:#82bbc8; stroke:none;" d="M174 211L175 212L174 211z"/>
<path style="fill:#c4e0e6; stroke:none;" d="M231 211L232 212L231 211z"/>
<path style="fill:#82bbc8; stroke:none;" d="M304 211L305 212L304 211M82 212L83 213L82 212M223 212L224 213L223 212M231 212L232 213L231 212z"/>
<path style="fill:#c4e0e6; stroke:none;" d="M304 212L305 213L304 212M128 213L129 214L128 213z"/>
<path style="fill:#82bbc8; stroke:none;" d="M174 213L175 214L174 213z"/>
<path style="fill:#a9d2db; stroke:none;" d="M223.333 213.667L223.667 214.333L223.333 213.667z"/>
<path style="fill:#c4e0e6; stroke:none;" d="M232 213L233 214L232 213z"/>
<path style="fill:#82bbc8; stroke:none;" d="M305 213L306 214L305 213z"/>
<path style="fill:#a9d2db; stroke:none;" d="M83 214L84 215L83 214M174 214L175 215L174 214z"/>
<path style="fill:#82bbc8; stroke:none;" d="M232 214L233 215L232 214z"/>
<path style="fill:#c4e0e6; stroke:none;" d="M305.333 214.667L305.667 215.333L305.333 214.667z"/>
<path style="fill:#82bbc8; stroke:none;" d="M129 215L130 216L129 215M223.333 215.667L223.667 216.333L223.333 215.667z"/>
<path style="fill:#c4e0e6; stroke:none;" d="M233 215L234 216L233 215z"/>
<path style="fill:#a9d2db; stroke:none;" d="M84 216L85 217L84 216z"/>
<path style="fill:#c4e0e6; stroke:none;" d="M129.333 216.667L129.667 217.333L129.333 216.667z"/>
<path style="fill:#82bbc8; stroke:none;" d="M174 216L174 219L175 219L174 216M306 216L307 217L306 216M84 217L85 218L84 217z"/>
<path style="fill:#a9d2db; stroke:none;" d="M223.333 217.667L223.667 218.333L223.333 217.667z"/>
<path style="fill:#c4e0e6; stroke:none;" d="M234 217L235 218L234 217M306 217L307 218L306 217M85 218L86 219L85 218z"/>
<path style="fill:#82bbc8; stroke:none;" d="M130.333 218.667L130.667 219.333L130.333 218.667z"/>
<path style="fill:#a9d2db; stroke:none;" d="M234 218L235 219L234 218z"/>
<path style="fill:#82bbc8; stroke:none;" d="M307 218L308 219L307 218M223 219L224 220L223 219z"/>
<path style="fill:#c4e0e6; stroke:none;" d="M307 219L308 220L307 219z"/>
<path style="fill:#a9d2db; stroke:none;" d="M86 220L87 221L86 220z"/>
<path style="fill:#c4e0e6; stroke:none;" d="M130 220L131 221L130 220z"/>
<path style="fill:#a9d2db; stroke:none;" d="M174 220L175 221L174 220M223.333 220.667L223.667 221.333L223.333 220.667M235 220L236 221L235 220z"/>
<path style="fill:#82bbc8; stroke:none;" d="M308 220L309 221L308 220z"/>
<path style="fill:#c4e0e6; stroke:none;" d="M87 221L88 222L87 221z"/>
<path style="fill:#82bbc8; stroke:none;" d="M174 221L175 222L174 221z"/>
<path style="fill:#c4e0e6; stroke:none;" d="M236 221L237 222L236 221M308 221L309 222L308 221z"/>
<path style="fill:#82bbc8; stroke:none;" d="M87 222L88 223L87 222M131.333 222.667L131.667 223.333L131.333 222.667M223 222L224 223L223 222z"/>
<path style="fill:#a9d2db; stroke:none;" d="M236 222L237 223L236 222z"/>
<path style="fill:#c4e0e6; stroke:none;" d="M88 223L89 224L88 223z"/>
<path style="fill:#82bbc8; stroke:none;" d="M174 223L175 224L174 223z"/>
<path style="fill:#a9d2db; stroke:none;" d="M223.333 223.667L223.667 224.333L223.333 223.667z"/>
<path style="fill:#82bbc8; stroke:none;" d="M236 223L237 224L236 223M309 223L310 224L309 223M88 224L89 225L88 224z"/>
<path style="fill:#c4e0e6; stroke:none;" d="M131 224L132 225L131 224z"/>
<path style="fill:#a9d2db; stroke:none;" d="M174 224L175 225L174 224z"/>
<path style="fill:#c4e0e6; stroke:none;" d="M237 224L238 225L237 224M309 224L310 225L309 224z"/>
<path style="fill:#a9d2db; stroke:none;" d="M89 225L90 226L89 225z"/>
<path style="fill:#82bbc8; stroke:none;" d="M132 225L133 226L132 225M174.333 225.667L174.667 226.333L174.333 225.667M223.333 225.667L223.667 226.333L223.333 225.667M237 225L238 226L237 225z"/>
<path style="fill:#a9d2db; stroke:none;" d="M310 225L311 226L310 225z"/>
<path style="fill:#c4e0e6; stroke:none;" d="M90 226L91 227L90 226z"/>
<path style="fill:#a9d2db; stroke:none;" d="M132 226L133 227L132 226M238 226L239 227L238 226z"/>
<path style="fill:#c4e0e6; stroke:none;" d="M310 226L311 227L310 226M91 227L92 228L91 227z"/>
<path style="fill:#a9d2db; stroke:none;" d="M174 227L175 228L174 227M223.333 227.667L223.667 228.333L223.333 227.667z"/>
<path style="fill:#82bbc8; stroke:none;" d="M238 227L239 228L238 227M311 227L312 228L311 227z"/>
<path style="fill:#c4e0e6; stroke:none;" d="M92 228L93 229L92 228z"/>
<path style="fill:#a9d2db; stroke:none;" d="M133 228L134 229L133 228z"/>
<path style="fill:#82bbc8; stroke:none;" d="M174 228L175 229L174 228z"/>
<path style="fill:#c4e0e6; stroke:none;" d="M311.333 228.667L311.667 229.333L311.333 228.667z"/>
<path style="fill:#82bbc8; stroke:none;" d="M92 229L93 230L92 229M223 229L224 230L223 229z"/>
<path style="fill:#a9d2db; stroke:none;" d="M239 229L240 230L239 229z"/>
<path style="fill:#82bbc8; stroke:none;" d="M93 230L94 231L93 230z"/>
<path style="fill:#a9d2db; stroke:none;" d="M134 230L135 231L134 230z"/>
<path style="fill:#82bbc8; stroke:none;" d="M174 230L175 231L174 230z"/>
<path style="fill:#a9d2db; stroke:none;" d="M223.333 230.667L223.667 231.333L223.333 230.667z"/>
<path style="fill:#82bbc8; stroke:none;" d="M312 230L313 231L312 230M94 231L95 232L94 231z"/>
<path style="fill:#c4e0e6; stroke:none;" d="M95 231L96 232L95 231z"/>
<path style="fill:#a9d2db; stroke:none;" d="M174 231L175 232L174 231z"/>
<path style="fill:#82bbc8; stroke:none;" d="M240 231L241 232L240 231z"/>
<path style="fill:#c4e0e6; stroke:none;" d="M96 232L97 233L96 232z"/>
<path style="fill:#a9d2db; stroke:none;" d="M135 232L136 233L135 232z"/>
<path style="fill:#82bbc8; stroke:none;" d="M223 232L224 233L223 232z"/>
<path style="fill:#c4e0e6; stroke:none;" d="M241 232L242 233L241 232z"/>
<path style="fill:#82bbc8; stroke:none;" d="M313 232L314 233L313 232z"/>
<path style="fill:#c4e0e6; stroke:none;" d="M97 233L98 234L97 233z"/>
<path style="fill:#82bbc8; stroke:none;" d="M174 233L174 236L175 236L174 233z"/>
<path style="fill:#a9d2db; stroke:none;" d="M223.333 233.667L223.667 234.333L223.333 233.667z"/>
<path style="fill:#82bbc8; stroke:none;" d="M241 233L242 234L241 233M98 234L99 235L98 234M136 234L137 235L136 234z"/>
<path style="fill:#a9d2db; stroke:none;" d="M314 234L315 235L314 234z"/>
<path style="fill:#82bbc8; stroke:none;" d="M99 235L101 237L99 235z"/>
<path style="fill:#c4e0e6; stroke:none;" d="M100 235L101 236L100 235M136 235L137 236L136 235z"/>
<path style="fill:#82bbc8; stroke:none;" d="M223.333 235.667L223.667 236.333L223.333 235.667z"/>
<path style="fill:#c4e0e6; stroke:none;" d="M242 235L243 236L242 235M314 235L315 236L314 235M101 236L102 237L101 236z"/>
<path style="fill:#82bbc8; stroke:none;" d="M137 236L138 237L137 236M242 236L243 237L242 236z"/>
<path style="fill:#a9d2db; stroke:none;" d="M103 237L104 238L103 237M174 237L175 238L174 237M223.333 237.667L223.667 238.333L223.333 237.667z"/>
<path style="fill:#c4e0e6; stroke:none;" d="M243 237L244 238L243 237M315 237L316 238L315 237M105 238L106 239L105 238M138 238L139 239L138 238z"/>
<path style="fill:#82bbc8; stroke:none;" d="M174 238L175 239L174 238z"/>
<path style="fill:#a9d2db; stroke:none;" d="M243 238L244 239L243 238M139 239L140 240L139 239z"/>
<path style="fill:#82bbc8; stroke:none;" d="M223 239L224 240L223 239M316 239L317 240L316 239M108 240L109 241L108 240z"/>
<path style="fill:#c4e0e6; stroke:none;" d="M109 240L110 241L109 240z"/>
<path style="fill:#82bbc8; stroke:none;" d="M174 240L175 241L174 240z"/>
<path style="fill:#a9d2db; stroke:none;" d="M223.333 240.667L223.667 241.333L223.333 240.667z"/>
<path style="fill:#82bbc8; stroke:none;" d="M244 240L245 241L244 240z"/>
<path style="fill:#c4e0e6; stroke:none;" d="M316 240L317 241L316 240z"/>
<path style="fill:#82bbc8; stroke:none;" d="M110 241L111 242L110 241z"/>
<path style="fill:#c4e0e6; stroke:none;" d="M111.667 241.333L112.333 241.667L111.667 241.333M140 241L141 242L140 241z"/>
<path style="fill:#a9d2db; stroke:none;" d="M174 241L175 242L174 241z"/>
<path style="fill:#82bbc8; stroke:none;" d="M317 241L318 242L317 241M113.667 242.333L114.333 242.667L113.667 242.333z"/>
<path style="fill:#c4e0e6; stroke:none;" d="M115.667 242.333L116.333 242.667L115.667 242.333z"/>
<path style="fill:#a9d2db; stroke:none;" d="M141 242L142 243L141 242z"/>
<path style="fill:#82bbc8; stroke:none;" d="M223.333 242.667L223.667 243.333L223.333 242.667M245 242L246 243L245 242z"/>
<path style="fill:#c4e0e6; stroke:none;" d="M317 242L318 243L317 242z"/>
<path style="fill:#82bbc8; stroke:none;" d="M117 243L118 244L117 243z"/>
<path style="fill:#c4e0e6; stroke:none;" d="M118.667 243.333L119.333 243.667L118.667 243.333z"/>
<path style="fill:#82bbc8; stroke:none;" d="M142 243L143 244L142 243M174 243L174 246L175 246L174 243z"/>
<path style="fill:#c4e0e6; stroke:none;" d="M246 243L247 244L246 243z"/>
<path style="fill:#a9d2db; stroke:none;" d="M121.667 244.333L122.333 244.667L121.667 244.333z"/>
<path style="fill:#c4e0e6; stroke:none;" d="M123 244L124 245L123 244z"/>
<path style="fill:#a9d2db; stroke:none;" d="M223.333 244.667L223.667 245.333L223.333 244.667z"/>
<path style="fill:#82bbc8; stroke:none;" d="M246.333 244.667L246.667 245.333L246.333 244.667z"/>
<path style="fill:#a9d2db; stroke:none;" d="M318 244L319 245L318 244z"/>
<path style="fill:#82bbc8; stroke:none;" d="M126 245L127 246L126 245z"/>
<path style="fill:#a9d2db; stroke:none;" d="M127 245L128 246L127 245z"/>
<path style="fill:#c4e0e6; stroke:none;" d="M128 245L128 246L131 246L128 245M143 245L138 246L138 247L143 245z"/>
<path style="fill:#82bbc8; stroke:none;" d="M131 246L131 247L136 247L131 246z"/>
<path style="fill:#a9d2db; stroke:none;" d="M136.667 246.333L137.333 246.667L136.667 246.333z"/>
<path style="fill:#82bbc8; stroke:none;" d="M144 246L145 247L144 246M223 246L224 247L223 246z"/>
<path style="fill:#c4e0e6; stroke:none;" d="M247 246L248 247L247 246z"/>
<path style="fill:#a9d2db; stroke:none;" d="M319 246L320 247L319 246M174 247L175 248L174 247M223.333 247.667L223.667 248.333L223.333 247.667M247 247L248 248L247 247z"/>
<path style="fill:#82bbc8; stroke:none;" d="M320 247L321 248L320 247M174 248L175 249L174 248z"/>
<path style="fill:#c4e0e6; stroke:none;" d="M248 248L249 249L248 248M320.333 248.667L320.667 249.333L320.333 248.667z"/>
<path style="fill:#82bbc8; stroke:none;" d="M223 249L224 250L223 249M248 249L249 250L248 249M174 250L175 251L174 250z"/>
<path style="fill:#a9d2db; stroke:none;" d="M223.333 250.667L223.667 251.333L223.333 250.667z"/>
<path style="fill:#c4e0e6; stroke:none;" d="M249 250L250 251L249 250z"/>
<path style="fill:#a9d2db; stroke:none;" d="M321 250L322 251L321 250M174 251L175 252L174 251z"/>
<path style="fill:#82bbc8; stroke:none;" d="M249 251L250 252L249 251z"/>
<path style="fill:#c4e0e6; stroke:none;" d="M321 251L322 252L321 251z"/>
<path style="fill:#82bbc8; stroke:none;" d="M174.333 252.667L174.667 253.333L174.333 252.667M223.333 252.667L223.667 253.333L223.333 252.667M322 252L323 253L322 252M250 253L251 254L250 253z"/>
<path style="fill:#a9d2db; stroke:none;" d="M322 253L323 254L322 253M174 254L175 255L174 254M223.333 254.667L223.667 255.333L223.333 254.667z"/>
<path style="fill:#82bbc8; stroke:none;" d="M323 254L324 255L323 254M174 255L175 256L174 255M251.333 255.667L251.667 256.333L251.333 255.667z"/>
<path style="fill:#c4e0e6; stroke:none;" d="M323 255L324 256L323 255z"/>
<path style="fill:#82bbc8; stroke:none;" d="M223 256L224 257L223 256z"/>
<path style="fill:#a9d2db; stroke:none;" d="M174.333 257.667L174.667 258.333L174.333 257.667M223.333 257.667L223.667 258.333L223.333 257.667z"/>
<path style="fill:#c4e0e6; stroke:none;" d="M252 257L253 258L252 257z"/>
<path style="fill:#82bbc8; stroke:none;" d="M324 257L325 258L324 257M252 258L253 259L252 258z"/>
<path style="fill:#c4e0e6; stroke:none;" d="M324 258L325 259L324 258z"/>
<path style="fill:#82bbc8; stroke:none;" d="M223 259L224 260L223 259z"/>
<path style="fill:#c4e0e6; stroke:none;" d="M253 259L254 260L253 259z"/>
<path style="fill:#82bbc8; stroke:none;" d="M325 259L326 260L325 259M174 260L175 261L174 260z"/>
<path style="fill:#a9d2db; stroke:none;" d="M223.333 260.667L223.667 261.333L223.333 260.667z"/>
<path style="fill:#82bbc8; stroke:none;" d="M253 260L254 261L253 260z"/>
<path style="fill:#c4e0e6; stroke:none;" d="M325 260L326 261L325 260z"/>
<path style="fill:#a9d2db; stroke:none;" d="M174 261L175 262L174 261z"/>
<path style="fill:#c4e0e6; stroke:none;" d="M254 261L255 262L254 261z"/>
<path style="fill:#82bbc8; stroke:none;" d="M326 261L327 262L326 261M174.333 262.667L174.667 263.333L174.333 262.667M223.333 262.667L223.667 263.333L223.333 262.667z"/>
<path style="fill:#a9d2db; stroke:none;" d="M254 262L255 263L254 262z"/>
<path style="fill:#c4e0e6; stroke:none;" d="M326 262L327 263L326 262z"/>
<path style="fill:#82bbc8; stroke:none;" d="M254 263L255 264L254 263z"/>
<path style="fill:#c4e0e6; stroke:none;" d="M255 263L256 264L255 263z"/>
<path style="fill:#a9d2db; stroke:none;" d="M174 264L175 265L174 264M223.333 264.667L223.667 265.333L223.333 264.667M255 264L256 265L255 264z"/>
<path style="fill:#82bbc8; stroke:none;" d="M327 264L328 265L327 264M174 265L175 266L174 265M255 265L256 266L255 265z"/>
<path style="fill:#c4e0e6; stroke:none;" d="M327 265L328 266L327 265z"/>
<path style="fill:#82bbc8; stroke:none;" d="M223 266L224 267L223 266z"/>
<path style="fill:#a9d2db; stroke:none;" d="M256 266L257 267L256 266z"/>
<path style="fill:#82bbc8; stroke:none;" d="M328 266L329 267L328 266M174 267L175 268L174 267z"/>
<path style="fill:#a9d2db; stroke:none;" d="M223.333 267.667L223.667 268.333L223.333 267.667z"/>
<path style="fill:#82bbc8; stroke:none;" d="M256 267L257 268L256 267z"/>
<path style="fill:#c4e0e6; stroke:none;" d="M328 267L329 268L328 267z"/>
<path style="fill:#a9d2db; stroke:none;" d="M174 268L175 269L174 268M257 268L258 269L257 268z"/>
<path style="fill:#82bbc8; stroke:none;" d="M329 268L330 269L329 268M223 269L224 270L223 269M257 269L258 270L257 269z"/>
<path style="fill:#c4e0e6; stroke:none;" d="M329 269L330 270L329 269z"/>
<path style="fill:#82bbc8; stroke:none;" d="M174 270L174 273L175 273L174 270z"/>
<path style="fill:#a9d2db; stroke:none;" d="M223.333 270.667L223.667 271.333L223.333 270.667z"/>
<path style="fill:#c4e0e6; stroke:none;" d="M258 270L259 271L258 270z"/>
<path style="fill:#82bbc8; stroke:none;" d="M258.333 271.667L258.667 272.333L258.333 271.667z"/>
<path style="fill:#c4e0e6; stroke:none;" d="M330 271L331 272L330 271z"/>
<path style="fill:#82bbc8; stroke:none;" d="M223.333 272.667L223.667 273.333L223.333 272.667z"/>
<path style="fill:#c4e0e6; stroke:none;" d="M259 273L260 274L259 273z"/>
<path style="fill:#a9d2db; stroke:none;" d="M331 273L332 274L331 273M174 274L175 275L174 274M223.333 274.667L223.667 275.333L223.333 274.667z"/>
<path style="fill:#c4e0e6; stroke:none;" d="M331 274L332 275L331 274z"/>
<path style="fill:#82bbc8; stroke:none;" d="M174 275L175 276L174 275z"/>
<path style="fill:#a9d2db; stroke:none;" d="M260 275L261 276L260 275z"/>
<path style="fill:#82bbc8; stroke:none;" d="M332 275L333 276L332 275M223 276L224 277L223 276z"/>
<path style="fill:#c4e0e6; stroke:none;" d="M332 276L333 277L332 276z"/>
<path style="fill:#82bbc8; stroke:none;" d="M174 277L175 278L174 277z"/>
<path style="fill:#a9d2db; stroke:none;" d="M223.333 277.667L223.667 278.333L223.333 277.667M261 277L262 278L261 277z"/>
<path style="fill:#82bbc8; stroke:none;" d="M333.333 277.667L333.667 278.333L333.333 277.667z"/>
<path style="fill:#a9d2db; stroke:none;" d="M174 278L175 279L174 278z"/>
<path style="fill:#82bbc8; stroke:none;" d="M223.333 279.667L223.667 280.333L223.333 279.667z"/>
<path style="fill:#a9d2db; stroke:none;" d="M262 279L263 280L262 279z"/>
<path style="fill:#82bbc8; stroke:none;" d="M174 280L174 283L175 283L174 280M262 280L263 281L262 280z"/>
<path style="fill:#a9d2db; stroke:none;" d="M334 280L335 281L334 280M223.333 281.667L223.667 282.333L223.333 281.667M263 282L264 283L263 282M335 282L336 283L335 282z"/>
<path style="fill:#82bbc8; stroke:none;" d="M223 283L224 284L223 283M263 283L264 284L263 283z"/>
<path style="fill:#a9d2db; stroke:none;" d="M174 284L175 285L174 284M223.333 284.667L223.667 285.333L223.333 284.667z"/>
<path style="fill:#c4e0e6; stroke:none;" d="M264 284L265 285L264 284z"/>
<path style="fill:#82bbc8; stroke:none;" d="M336 284L337 285L336 284M174 285L175 286L174 285z"/>
<path style="fill:#c4e0e6; stroke:none;" d="M336 285L337 286L336 285z"/>
<path style="fill:#82bbc8; stroke:none;" d="M223 286L224 287L223 286z"/>
<path style="fill:#a9d2db; stroke:none;" d="M265 286L266 287L265 286z"/>
<path style="fill:#82bbc8; stroke:none;" d="M337 286L338 287L337 286M174 287L175 288L174 287z"/>
<path style="fill:#a9d2db; stroke:none;" d="M223.333 287.667L223.667 288.333L223.333 287.667z"/>
<path style="fill:#c4e0e6; stroke:none;" d="M337 287L338 288L337 287z"/>
<path style="fill:#a9d2db; stroke:none;" d="M174 288L175 289L174 288M266 288L267 289L266 288z"/>
<path style="fill:#82bbc8; stroke:none;" d="M338 288L339 289L338 288M174.333 289.667L174.667 290.333L174.333 289.667M223.333 289.667L223.667 290.333L223.333 289.667z"/>
<path style="fill:#a9d2db; stroke:none;" d="M338 289L339 290L338 289z"/>
<path style="fill:#c4e0e6; stroke:none;" d="M267 290L268 291L267 290z"/>
<path style="fill:#a9d2db; stroke:none;" d="M174 291L175 292L174 291M223.333 291.667L223.667 292.333L223.333 291.667z"/>
<path style="fill:#82bbc8; stroke:none;" d="M267 291L268 292L267 291M339 291L340 292L339 291M174 292L175 293L174 292z"/>
<path style="fill:#c4e0e6; stroke:none;" d="M268 292L269 293L268 292z"/>
<path style="fill:#a9d2db; stroke:none;" d="M339 292L340 293L339 292z"/>
<path style="fill:#82bbc8; stroke:none;" d="M223 293L224 294L223 293M268 293L269 294L268 293z"/>
<path style="fill:#a9d2db; stroke:none;" d="M174.333 294.667L174.667 295.333L174.333 294.667M223.333 294.667L223.667 295.333L223.333 294.667z"/>
<path style="fill:#c4e0e6; stroke:none;" d="M340 294L341 295L340 294z"/>
<path style="fill:#a9d2db; stroke:none;" d="M269 295L270 296L269 295z"/>
<path style="fill:#82bbc8; stroke:none;" d="M341 295L342 296L341 295M223 296L224 297L223 296z"/>
<path style="fill:#c4e0e6; stroke:none;" d="M341 296L342 297L341 296z"/>
<path style="fill:#82bbc8; stroke:none;" d="M174 297L175 298L174 297z"/>
<path style="fill:#a9d2db; stroke:none;" d="M223.333 297.667L223.667 298.333L223.333 297.667M270 297L271 298L270 297z"/>
<path style="fill:#82bbc8; stroke:none;" d="M342.333 297.667L342.667 298.333L342.333 297.667z"/>
<path style="fill:#a9d2db; stroke:none;" d="M174 298L175 299L174 298z"/>
<path style="fill:#82bbc8; stroke:none;" d="M174.333 299.667L174.667 300.333L174.333 299.667M223.333 299.667L223.667 300.333L223.333 299.667z"/>
<path style="fill:#a9d2db; stroke:none;" d="M271 299L272 300L271 299z"/>
<path style="fill:#c4e0e6; stroke:none;" d="M342 299L343 300L342 299z"/>
<path style="fill:#82bbc8; stroke:none;" d="M271 300L272 301L271 300M343 300L344 301L343 300z"/>
<path style="fill:#a9d2db; stroke:none;" d="M174 301L175 302L174 301M223.333 301.667L223.667 302.333L223.333 301.667z"/>
<path style="fill:#c4e0e6; stroke:none;" d="M272 301L273 302L272 301M343 301L344 302L343 301z"/>
<path style="fill:#82bbc8; stroke:none;" d="M174 302L175 303L174 302M272 302L273 303L272 302M344 302L345 303L344 302M223 303L224 304L223 303z"/>
<path style="fill:#c4e0e6; stroke:none;" d="M273 303L274 304L273 303M344 303L345 304L344 303z"/>
<path style="fill:#82bbc8; stroke:none;" d="M174 304L175 305L174 304z"/>
<path style="fill:#a9d2db; stroke:none;" d="M223.333 304.667L223.667 305.333L223.333 304.667z"/>
<path style="fill:#82bbc8; stroke:none;" d="M273 304L274 305L273 304M345 304L346 305L345 304z"/>
<path style="fill:#a9d2db; stroke:none;" d="M174 305L175 306L174 305z"/>
<path style="fill:#c4e0e6; stroke:none;" d="M274 305L275 306L274 305z"/>
<path style="fill:#a9d2db; stroke:none;" d="M345 305L346 306L345 305z"/>
<path style="fill:#82bbc8; stroke:none;" d="M223.333 306.667L223.667 307.333L223.333 306.667z"/>
<path style="fill:#a9d2db; stroke:none;" d="M274 306L275 307L274 306z"/>
<path style="fill:#c4e0e6; stroke:none;" d="M345 306L346 307L345 306z"/>
<path style="fill:#82bbc8; stroke:none;" d="M174 307L174 310L175 310L174 307z"/>
<path style="fill:#c4e0e6; stroke:none;" d="M275.333 307.667L275.667 308.333L275.333 307.667z"/>
<path style="fill:#82bbc8; stroke:none;" d="M346 307L347 308L346 307z"/>
<path style="fill:#a9d2db; stroke:none;" d="M223 308L224 309L223 308z"/>
<path style="fill:#c4e0e6; stroke:none;" d="M346 308L347 309L346 308z"/>
<path style="fill:#82bbc8; stroke:none;" d="M223.333 309.667L223.667 310.333L223.333 309.667M347 309L348 310L347 309z"/>
<path style="fill:#c4e0e6; stroke:none;" d="M276 310L277 311L276 310M347 310L348 311L347 310z"/>
<path style="fill:#a9d2db; stroke:none;" d="M174 311L175 312L174 311M223.333 311.667L223.667 312.333L223.333 311.667z"/>
<path style="fill:#82bbc8; stroke:none;" d="M276 311L277 312L276 311M348.333 311.667L348.667 312.333L348.333 311.667M174 312L175 313L174 312z"/>
<path style="fill:#c4e0e6; stroke:none;" d="M277 312L278 313L277 312z"/>
<path style="fill:#82bbc8; stroke:none;" d="M223 313L224 314L223 313M277 313L278 314L277 313z"/>
<path style="fill:#c4e0e6; stroke:none;" d="M348 313L349 314L348 313z"/>
<path style="fill:#82bbc8; stroke:none;" d="M174 314L175 315L174 314z"/>
<path style="fill:#a9d2db; stroke:none;" d="M223.333 314.667L223.667 315.333L223.333 314.667z"/>
<path style="fill:#c4e0e6; stroke:none;" d="M278 314L279 315L278 314z"/>
<path style="fill:#82bbc8; stroke:none;" d="M349 314L350 315L349 314z"/>
<path style="fill:#a9d2db; stroke:none;" d="M174 315L175 316L174 315z"/>
<path style="fill:#82bbc8; stroke:none;" d="M278 315L279 316L278 315z"/>
<path style="fill:#c4e0e6; stroke:none;" d="M349 315L350 316L349 315z"/>
<path style="fill:#82bbc8; stroke:none;" d="M223.333 316.667L223.667 317.333L223.333 316.667z"/>
<path style="fill:#c4e0e6; stroke:none;" d="M279.333 316.667L279.667 317.333L279.333 316.667z"/>
<path style="fill:#82bbc8; stroke:none;" d="M350 316L351 317L350 316M174 317L174 320L175 320L174 317z"/>
<path style="fill:#a9d2db; stroke:none;" d="M223.333 318.667L223.667 319.333L223.333 318.667z"/>
<path style="fill:#c4e0e6; stroke:none;" d="M280.333 318.667L280.667 319.333L280.333 318.667z"/>
<path style="fill:#82bbc8; stroke:none;" d="M351 318L352 319L351 318z"/>
<path style="fill:#c4e0e6; stroke:none;" d="M351 319L352 320L351 319z"/>
<path style="fill:#82bbc8; stroke:none;" d="M223 320L224 321L223 320M280 320L281 321L280 320z"/>
<path style="fill:#a9d2db; stroke:none;" d="M174 321L175 322L174 321M223.333 321.667L223.667 322.333L223.333 321.667z"/>
<path style="fill:#c4e0e6; stroke:none;" d="M281 321L282 322L281 321z"/>
<path style="fill:#a9d2db; stroke:none;" d="M352 321L353 322L352 321z"/>
<path style="fill:#82bbc8; stroke:none;" d="M174 322L175 323L174 322M281 322L282 323L281 322M353 322L354 323L353 322M223 323L224 324L223 323z"/>
<path style="fill:#c4e0e6; stroke:none;" d="M282 323L283 324L282 323z"/>
<path style="fill:#a9d2db; stroke:none;" d="M353 323L354 324L353 323z"/>
<path style="fill:#82bbc8; stroke:none;" d="M174 324L175 325L174 324z"/>
<path style="fill:#a9d2db; stroke:none;" d="M223.333 324.667L223.667 325.333L223.333 324.667z"/>
<path style="fill:#82bbc8; stroke:none;" d="M282 324L283 325L282 324z"/>
<path style="fill:#a9d2db; stroke:none;" d="M174 325L175 326L174 325M283 325L284 326L283 325z"/>
<path style="fill:#82bbc8; stroke:none;" d="M354 325L355 326L354 325M174.333 326.667L174.667 327.333L174.333 326.667M223.333 326.667L223.667 327.333L223.333 326.667M283.333 326.667L283.667 327.333L283.333 326.667z"/>
<path style="fill:#c4e0e6; stroke:none;" d="M354 326L355 327L354 326z"/>
<path style="fill:#a9d2db; stroke:none;" d="M174 328L175 329L174 328M223.333 328.667L223.667 329.333L223.333 328.667M284 328L285 329L284 328M355 328L356 329L355 328z"/>
<path style="fill:#82bbc8; stroke:none;" d="M174 329L175 330L174 329M284 329L285 330L284 329M223 330L224 331L223 330z"/>
<path style="fill:#c4e0e6; stroke:none;" d="M285 330L286 331L285 330z"/>
<path style="fill:#a9d2db; stroke:none;" d="M356 330L357 331L356 330z"/>
<path style="fill:#82bbc8; stroke:none;" d="M174 331L175 332L174 331z"/>
<path style="fill:#a9d2db; stroke:none;" d="M223.333 331.667L223.667 332.333L223.333 331.667z"/>
<path style="fill:#82bbc8; stroke:none;" d="M285 331L286 332L285 331z"/>
<path style="fill:#a9d2db; stroke:none;" d="M174 332L175 333L174 332z"/>
<path style="fill:#c4e0e6; stroke:none;" d="M286 332L287 333L286 332M357.333 332.667L357.667 333.333L357.333 332.667z"/>
<path style="fill:#82bbc8; stroke:none;" d="M223 333L224 334L223 333M174 334L174 337L175 337L174 334z"/>
<path style="fill:#a9d2db; stroke:none;" d="M223.333 334.667L223.667 335.333L223.333 334.667z"/>
<path style="fill:#c4e0e6; stroke:none;" d="M287 334L288 335L287 334z"/>
<path style="fill:#82bbc8; stroke:none;" d="M358 334L359 335L358 334z"/>
<path style="fill:#a9d2db; stroke:none;" d="M287 335L288 336L287 335z"/>
<path style="fill:#c4e0e6; stroke:none;" d="M358 335L359 336L358 335z"/>
<path style="fill:#82bbc8; stroke:none;" d="M223.333 336.667L223.667 337.333L223.333 336.667z"/>
<path style="fill:#c4e0e6; stroke:none;" d="M288 336L289 337L288 336z"/>
<path style="fill:#82bbc8; stroke:none;" d="M359 336L360 337L359 336z"/>
<path style="fill:#a9d2db; stroke:none;" d="M288 337L289 338L288 337M359 337L360 338L359 337M174 338L175 339L174 338M223.333 338.667L223.667 339.333L223.333 338.667z"/>
<path style="fill:#c4e0e6; stroke:none;" d="M289 338L290 339L289 338z"/>
<path style="fill:#82bbc8; stroke:none;" d="M360 338L361 339L360 338M174 339L175 340L174 339M289 339L290 340L289 339z"/>
<path style="fill:#a9d2db; stroke:none;" d="M360 339L361 340L360 339z"/>
<path style="fill:#82bbc8; stroke:none;" d="M223 340L224 341L223 340z"/>
<path style="fill:#c4e0e6; stroke:none;" d="M360 340L361 341L360 340z"/>
<path style="fill:#82bbc8; stroke:none;" d="M174 341L175 342L174 341z"/>
<path style="fill:#a9d2db; stroke:none;" d="M223.333 341.667L223.667 342.333L223.333 341.667z"/>
<path style="fill:#c4e0e6; stroke:none;" d="M290 341L291 342L290 341z"/>
<path style="fill:#a9d2db; stroke:none;" d="M174 342L175 343L174 342z"/>
<path style="fill:#82bbc8; stroke:none;" d="M290 342L291 343L290 342M223.333 343.667L223.667 344.333L223.333 343.667z"/>
<path style="fill:#a9d2db; stroke:none;" d="M291 343L292 344L291 343z"/>
<path style="fill:#82bbc8; stroke:none;" d="M174 344L174 347L175 347L174 344M291 344L292 345L291 344z"/>
<path style="fill:#a9d2db; stroke:none;" d="M223 345L224 346L223 345z"/>
<path style="fill:#82bbc8; stroke:none;" d="M223.333 346.667L223.667 347.333L223.333 346.667z"/>
<path style="fill:#a9d2db; stroke:none;" d="M292 346L293 347L292 346M174 348L175 349L174 348M223.333 348.667L223.667 349.333L223.333 348.667z"/>
<path style="fill:#82bbc8; stroke:none;" d="M293 348L294 349L293 348M174 349L175 350L174 349z"/>
<path style="fill:#c4e0e6; stroke:none;" d="M294 349L295 350L294 349z"/>
<path style="fill:#82bbc8; stroke:none;" d="M223 350L224 351L223 350M294 350L295 351L294 350M174 351L175 352L174 351z"/>
<path style="fill:#a9d2db; stroke:none;" d="M223.333 351.667L223.667 352.333L223.333 351.667M174 352L175 353L174 352M295 352L296 353L295 352z"/>
<path style="fill:#82bbc8; stroke:none;" d="M174.333 353.667L174.667 354.333L174.333 353.667M223.333 353.667L223.667 354.333L223.333 353.667M295 353L296 354L295 353z"/>
<path style="fill:#c4e0e6; stroke:none;" d="M296 354L297 355L296 354z"/>
<path style="fill:#a9d2db; stroke:none;" d="M174 355L175 356L174 355M223.333 355.667L223.667 356.333L223.333 355.667M296 355L297 356L296 355z"/>
<path style="fill:#82bbc8; stroke:none;" d="M174 356L175 357L174 356M223 357L224 358L223 357M297 357L298 358L297 357z"/>
<path style="fill:#a9d2db; stroke:none;" d="M174 358L175 359L174 358M223.333 358.667L223.667 359.333L223.333 358.667z"/>
<path style="fill:#82bbc8; stroke:none;" d="M174 359L175 360L174 359M298 359L299 360L298 359M223 360L224 361L223 360z"/>
<path style="fill:#c4e0e6; stroke:none;" d="M299 360L300 361L299 360z"/>
<path style="fill:#82bbc8; stroke:none;" d="M174 361L175 362L174 361z"/>
<path style="fill:#a9d2db; stroke:none;" d="M223.333 361.667L223.667 362.333L223.333 361.667z"/>
<path style="fill:#82bbc8; stroke:none;" d="M299 361L300 362L299 361z"/>
<path style="fill:#a9d2db; stroke:none;" d="M174 362L175 363L174 362z"/>
<path style="fill:#82bbc8; stroke:none;" d="M174.333 363.667L174.667 364.333L174.333 363.667M223.333 363.667L223.667 364.333L223.333 363.667z"/>
<path style="fill:#c4e0e6; stroke:none;" d="M300 363L301 364L300 363z"/>
<path style="fill:#a9d2db; stroke:none;" d="M300 364L301 365L300 364M174 365L175 366L174 365M223.333 365.667L223.667 366.333L223.333 365.667z"/>
<path style="fill:#c4e0e6; stroke:none;" d="M301 365L302 366L301 365z"/>
<path style="fill:#82bbc8; stroke:none;" d="M174 366L175 367L174 366M301 366L302 367L301 366M223 367L224 368L223 367z"/>
<path style="fill:#c4e0e6; stroke:none;" d="M302 367L303 368L302 367z"/>
<path style="fill:#82bbc8; stroke:none;" d="M174 368L175 369L174 368z"/>
<path style="fill:#a9d2db; stroke:none;" d="M223.333 368.667L223.667 369.333L223.333 368.667z"/>
<path style="fill:#82bbc8; stroke:none;" d="M302 368L303 369L302 368z"/>
<path style="fill:#a9d2db; stroke:none;" d="M174 369L175 370L174 369z"/>
<path style="fill:#c4e0e6; stroke:none;" d="M303 369L304 370L303 369z"/>
<path style="fill:#82bbc8; stroke:none;" d="M223 370L224 371L223 370M303 370L304 371L303 370M174 371L174 374L175 374L174 371z"/>
<path style="fill:#a9d2db; stroke:none;" d="M223.333 371.667L223.667 372.333L223.333 371.667z"/>
<path style="fill:#c4e0e6; stroke:none;" d="M304.333 371.667L304.667 372.333L304.333 371.667z"/>
<path style="fill:#82bbc8; stroke:none;" d="M223.333 373.667L223.667 374.333L223.333 373.667M304 373L305 374L304 373z"/>
<path style="fill:#a9d2db; stroke:none;" d="M305 374L306 375L305 374M174 375L175 376L174 375M223.333 375.667L223.667 376.333L223.333 375.667z"/>
<path style="fill:#82bbc8; stroke:none;" d="M305 375L306 376L305 375M174 376L175 377L174 376z"/>
<path style="fill:#c4e0e6; stroke:none;" d="M306 376L307 377L306 376z"/>
<path style="fill:#82bbc8; stroke:none;" d="M223 377L224 378L223 377M306 377L307 378L306 377M174 378L175 379L174 378z"/>
<path style="fill:#a9d2db; stroke:none;" d="M223.333 378.667L223.667 379.333L223.333 378.667z"/>
<path style="fill:#c4e0e6; stroke:none;" d="M307 378L308 379L307 378z"/>
<path style="fill:#a9d2db; stroke:none;" d="M174 379L175 380L174 379z"/>
<path style="fill:#82bbc8; stroke:none;" d="M307 379L308 380L307 379M223.333 380.667L223.667 381.333L223.333 380.667M174 381L174 384L175 384L174 381M308 381L309 382L308 381z"/>
<path style="fill:#a9d2db; stroke:none;" d="M223.333 382.667L223.667 383.333L223.333 382.667M309 383L310 384L309 383z"/>
<path style="fill:#82bbc8; stroke:none;" d="M223 384L224 385L223 384M309 384L310 385L309 384z"/>
<path style="fill:#a9d2db; stroke:none;" d="M174 385L175 386L174 385M223.333 385.667L223.667 386.333L223.333 385.667M310 385L311 386L310 385z"/>
<path style="fill:#82bbc8; stroke:none;" d="M174 386L175 387L174 386M310 386L311 387L310 386M223 387L224 388L223 387z"/>
<path style="fill:#c4e0e6; stroke:none;" d="M311 387L312 388L311 387z"/>
<path style="fill:#82bbc8; stroke:none;" d="M174 388L175 389L174 388z"/>
<path style="fill:#a9d2db; stroke:none;" d="M223.333 388.667L223.667 389.333L223.333 388.667z"/>
<path style="fill:#82bbc8; stroke:none;" d="M311 388L312 389L311 388z"/>
<path style="fill:#a9d2db; stroke:none;" d="M174 389L175 390L174 389z"/>
<path style="fill:#c4e0e6; stroke:none;" d="M312 389L313 390L312 389z"/>
<path style="fill:#82bbc8; stroke:none;" d="M174.333 390.667L174.667 391.333L174.333 390.667M223.333 390.667L223.667 391.333L223.333 390.667z"/>
<path style="fill:#a9d2db; stroke:none;" d="M312 390L313 391L312 390M174 392L175 393L174 392M223.333 392.667L223.667 393.333L223.333 392.667M313 392L314 393L313 392z"/>
<path style="fill:#82bbc8; stroke:none;" d="M174 393L175 394L174 393M223 394L224 395L223 394z"/>
<path style="fill:#a9d2db; stroke:none;" d="M314 394L315 395L314 394M174.333 395.667L174.667 396.333L174.333 395.667M223.333 395.667L223.667 396.333L223.333 395.667M315 396L316 397L315 396z"/>
<path style="fill:#82bbc8; stroke:none;" d="M223 397L224 398L223 397M315 397L316 398L315 397M174 398L175 399L174 398z"/>
<path style="fill:#a9d2db; stroke:none;" d="M223.333 398.667L223.667 399.333L223.333 398.667z"/>
<path style="fill:#c4e0e6; stroke:none;" d="M316 398L317 399L316 398z"/>
<path style="fill:#a9d2db; stroke:none;" d="M174 399L175 400L174 399M316 399L317 400L316 399z"/>
<path style="fill:#82bbc8; stroke:none;" d="M174.333 400.667L174.667 401.333L174.333 400.667M223.333 400.667L223.667 401.333L223.333 400.667M316 400L317 401L316 400z"/>
<path style="fill:#a9d2db; stroke:none;" d="M317 401L318 402L317 401M174 402L175 403L174 402M223.333 402.667L223.667 403.333L223.333 402.667z"/>
<path style="fill:#82bbc8; stroke:none;" d="M174 403L175 404L174 403z"/>
<path style="fill:#a9d2db; stroke:none;" d="M318 403L319 404L318 403z"/>
<path style="fill:#82bbc8; stroke:none;" d="M223 404L224 405L223 404M174 405L175 406L174 405z"/>
<path style="fill:#a9d2db; stroke:none;" d="M223.333 405.667L223.667 406.333L223.333 405.667M319 405L320 406L319 405M174 406L175 407L174 406z"/>
<path style="fill:#82bbc8; stroke:none;" d="M223 407L224 408L223 407z"/>
<path style="fill:#c4e0e6; stroke:none;" d="M320 407L321 410L322 410L320 407z"/>
<path style="fill:#82bbc8; stroke:none;" d="M174 408L174 411L175 411L174 408z"/>
<path style="fill:#a9d2db; stroke:none;" d="M223.333 408.667L223.667 409.333L223.333 408.667z"/>
<path style="fill:#82bbc8; stroke:none;" d="M320 408L321 409L320 408M223.333 410.667L223.667 411.333L223.333 410.667M321 410L322 411L321 410z"/>
<path style="fill:#c4e0e6; stroke:none;" d="M322 411L323 412L322 411z"/>
<path style="fill:#a9d2db; stroke:none;" d="M174 412L175 413L174 412M223.333 412.667L223.667 413.333L223.333 412.667M322 412L323 413L322 412z"/>
<path style="fill:#82bbc8; stroke:none;" d="M174 413L175 414L174 413M223 414L224 415L223 414z"/>
<path style="fill:#a9d2db; stroke:none;" d="M323 414L324 415L323 414z"/>
<path style="fill:#82bbc8; stroke:none;" d="M174 415L175 416L174 415z"/>
<path style="fill:#a9d2db; stroke:none;" d="M223.333 415.667L223.667 416.333L223.333 415.667M174 416L175 417L174 416M324 416L325 417L324 416z"/>
<path style="fill:#82bbc8; stroke:none;" d="M223.333 417.667L223.667 418.333L223.333 417.667M324 417L325 418L324 417M174 418L174 421L175 421L174 418z"/>
<path style="fill:#c4e0e6; stroke:none;" d="M325 418L326 419L325 418z"/>
<path style="fill:#a9d2db; stroke:none;" d="M223.333 419.667L223.667 420.333L223.333 419.667z"/>
<path style="fill:#82bbc8; stroke:none;" d="M325 419L326 420L325 419z"/>
<path style="fill:#c4e0e6; stroke:none;" d="M326 420L327 421L326 420z"/>
<path style="fill:#82bbc8; stroke:none;" d="M223 421L224 422L223 421M326 421L327 422L326 421z"/>
<path style="fill:#a9d2db; stroke:none;" d="M174 422L175 423L174 422M223.333 422.667L223.667 423.333L223.333 422.667z"/>
<path style="fill:#c4e0e6; stroke:none;" d="M327 422L328 423L327 422z"/>
<path style="fill:#82bbc8; stroke:none;" d="M174 423L175 424L174 423z"/>
<path style="fill:#a9d2db; stroke:none;" d="M327 423L328 424L327 423z"/>
<path style="fill:#82bbc8; stroke:none;" d="M223 424L224 425L223 424z"/>
<path style="fill:#c4e0e6; stroke:none;" d="M328 424L329 425L328 424z"/>
<path style="fill:#82bbc8; stroke:none;" d="M174 425L175 426L174 425z"/>
<path style="fill:#a9d2db; stroke:none;" d="M223.333 425.667L223.667 426.333L223.333 425.667M328 425L329 426L328 425M174 426L175 427L174 426z"/>
<path style="fill:#82bbc8; stroke:none;" d="M328 426L329 427L328 426M174.333 427.667L174.667 428.333L174.333 427.667M223.333 427.667L223.667 428.333L223.333 427.667z"/>
<path style="fill:#c4e0e6; stroke:none;" d="M329 427L330 428L329 427z"/>
<path style="fill:#82bbc8; stroke:none;" d="M329 428L330 429L329 428z"/>
<path style="fill:#a9d2db; stroke:none;" d="M174 429L175 430L174 429M223.333 429.667L223.667 430.333L223.333 429.667z"/>
<path style="fill:#c4e0e6; stroke:none;" d="M330 429L331 430L330 429z"/>
<path style="fill:#82bbc8; stroke:none;" d="M174 430L175 431L174 430M330 430L331 431L330 430M223 431L224 432L223 431z"/>
<path style="fill:#c4e0e6; stroke:none;" d="M331 431L332 432L331 431z"/>
<path style="fill:#a9d2db; stroke:none;" d="M174.333 432.667L174.667 433.333L174.333 432.667M223.333 432.667L223.667 433.333L223.333 432.667z"/>
<path style="fill:#82bbc8; stroke:none;" d="M331 432L332 433L331 432z"/>
<path style="fill:#c4e0e6; stroke:none;" d="M332 433L333 434L332 433z"/>
<path style="fill:#82bbc8; stroke:none;" d="M223 434L224 435L223 434M332.333 434.667L332.667 435.333L332.333 434.667M174 435L175 436L174 435z"/>
<path style="fill:#a9d2db; stroke:none;" d="M223.333 435.667L223.667 436.333L223.333 435.667M174 436L175 437L174 436z"/>
<path style="fill:#c4e0e6; stroke:none;" d="M333 436L334 437L333 436z"/>
<path style="fill:#82bbc8; stroke:none;" d="M174.333 437.667L174.667 438.333L174.333 437.667M223.333 437.667L223.667 438.333L223.333 437.667M333 437L334 438L333 437z"/>
<path style="fill:#c4e0e6; stroke:none;" d="M334 438L335 439L334 438z"/>
<path style="fill:#a9d2db; stroke:none;" d="M174 439L175 440L174 439M223.333 439.667L223.667 440.333L223.333 439.667z"/>
<path style="fill:#82bbc8; stroke:none;" d="M174 440L175 441L174 440z"/>
<path style="fill:#c4e0e6; stroke:none;" d="M335 440L336 441L335 440z"/>
<path style="fill:#82bbc8; stroke:none;" d="M223 441L224 442L223 441M335 441L336 442L335 441M174 442L175 443L174 442z"/>
<path style="fill:#a9d2db; stroke:none;" d="M223.333 442.667L223.667 443.333L223.333 442.667M336 442L337 443L336 442M174 443L175 444L174 443z"/>
<path style="fill:#82bbc8; stroke:none;" d="M336 443L337 444L336 443z"/>
<path style="fill:#c4e0e6; stroke:none;" d="M175 444L176 445L175 444M177.667 444.333L178.333 444.667L177.667 444.333M180 444L181 445L180 444M182 444L183 445L182 444M185 444L186 445L185 444M187 444L188 445L187 444M190 444L191 445L190 444M192 444L193 445L192 444M195 444L196 445L195 444M197 444L198 445L197 444M199.667 444.333L200.333 444.667L199.667 444.333M202 444L203 445L202 444M204.667 444.333L205.333 444.667L204.667 444.333M207 444L208 445L207 444M209.667 444.333L210.333 444.667L209.667 444.333M212 444L213 445L212 444M214.667 444.333L215.333 444.667L214.667 444.333M217 444L218 445L217 444M219 444L220 445L219 444M222 444L223 445L222 444z"/>
<path style="fill:#82bbc8; stroke:none;" d="M223 444L224 445L223 444z"/>
<path style="fill:#a9d2db; stroke:none;" d="M337 444L338 445L337 444z"/>
<path style="fill:#c4e0e6; stroke:none;" d="M339 444L340 445L339 444M341 444L342 445L341 444M344 444L345 445L344 444M346 444L347 445L346 444M349 444L350 445L349 444M351 444L352 445L351 444M353.667 444.333L354.333 444.667L353.667 444.333M356 444L357 445L356 444M358.667 444.333L359.333 444.667L358.667 444.333M361 444L362 445L361 444M363.667 444.333L364.333 444.667L363.667 444.333M366 444L367 445L366 444M368.667 444.333L369.333 444.667L368.667 444.333M371 444L372 445L371 444M373 444L374 445L373 444M376 444L377 445L376 444M378 444L379 445L378 444M381 444L382 445L381 444M383 444L384 445L383 444M386 444L387 445L386 444M388 444L389 445L388 444M390.667 444.333L391.333 444.667L390.667 444.333M393 444L394 445L393 444M395.667 444.333L396.333 444.667L395.667 444.333M398 444L399 445L398 444M400.667 444.333L401.333 444.667L400.667 444.333M403 444L404 445L403 444M405.667 444.333L406.333 444.667L405.667 444.333z"/>
<path style="fill:#82bbc8; stroke:none;" d="M176 445L177 446L176 445M179 445L180 446L179 445M181 445L182 446L181 445M183.667 445.333L184.333 445.667L183.667 445.333M186 445L187 446L186 445M188.667 445.333L189.333 445.667L188.667 445.333M191 445L192 446L191 445M193.667 445.333L194.333 445.667L193.667 445.333M196 445L197 446L196 445M198 445L199 446L198 445M201 445L202 446L201 445M203 445L204 446L203 445M206 445L207 446L206 445M208 445L209 446L208 445M211 445L212 446L211 445M213 445L214 446L213 445M216 445L217 446L216 445M218 445L219 446L218 445M220.667 445.333L221.333 445.667L220.667 445.333M338 445L339 446L338 445M340 445L341 446L340 445M342.667 445.333L343.333 445.667L342.667 445.333M345 445L346 446L345 445M347.667 445.333L348.333 445.667L347.667 445.333M350 445L351 446L350 445M352 445L353 446L352 445M355 445L356 446L355 445M357 445L358 446L357 445M360 445L361 446L360 445M362 445L363 446L362 445M365 445L366 446L365 445M367 445L368 446L367 445M370 445L371 446L370 445M372 445L373 446L372 445M374.667 445.333L375.333 445.667L374.667 445.333M377 445L378 446L377 445M379.667 445.333L380.333 445.667L379.667 445.333M382 445L383 446L382 445M384.667 445.333L385.333 445.667L384.667 445.333M387 445L388 446L387 445M389 445L390 446L389 445M392 445L393 446L392 445M394 445L395 446L394 445M397 445L398 446L397 445M399 445L400 446L399 445M402 445L403 446L402 445M404 445L405 446L404 445z"/>
</svg>
